<svg id="Capa_1" data-name="Capa 1" xmlns="http://www.w3.org/2000/svg" viewBox="0 0 2919.97 1202"><defs><style>.cls-1{fill:#598cc9;}.cls-1,.cls-2,.cls-3,.cls-4,.cls-5,.cls-6,.cls-7,.cls-8{stroke:#919191;}.cls-1,.cls-10,.cls-11,.cls-12,.cls-13,.cls-14,.cls-15,.cls-16,.cls-17,.cls-2,.cls-3,.cls-33,.cls-4,.cls-5,.cls-6,.cls-7,.cls-8,.cls-9{stroke-width:2px;}.cls-2,.cls-33{fill:#40b8b9;}.cls-11,.cls-3{fill:#f1863f;}.cls-16,.cls-4{fill:#ec6c6c;}.cls-34,.cls-39,.cls-41,.cls-43,.cls-5,.cls-9{fill:#fff;}.cls-17,.cls-6{fill:#7bb647;}.cls-14,.cls-19,.cls-20,.cls-7{fill:#fcc438;}.cls-13,.cls-8{fill:#84bbe6;}.cls-9{stroke:#282c33;}.cls-10{fill:#3278ca;}.cls-10,.cls-11,.cls-12,.cls-13,.cls-14,.cls-15,.cls-16,.cls-17,.cls-33{stroke:#000;stroke-opacity:0;}.cls-12{fill:#5abaa7;}.cls-15{fill:#ef8d20;}.cls-18,.cls-21,.cls-24,.cls-27,.cls-30{fill:none;}.cls-18,.cls-19,.cls-20{stroke:#fcc438;}.cls-18,.cls-20{stroke-width:7px;}.cls-19,.cls-22,.cls-25,.cls-28,.cls-31{stroke-width:0.05px;}.cls-21,.cls-22,.cls-23{stroke:#333;}.cls-21,.cls-23,.cls-24,.cls-26,.cls-27,.cls-29,.cls-30,.cls-32{stroke-width:6px;}.cls-22,.cls-23{fill:#333;}.cls-24,.cls-25,.cls-26{stroke:#834087;}.cls-25,.cls-26{fill:#834087;}.cls-27,.cls-28,.cls-29{stroke:#3ab5b7;}.cls-28,.cls-29{fill:#3ab5b7;}.cls-30,.cls-31,.cls-32{stroke:#82bbe6;}.cls-31,.cls-32{fill:#82bbe6;}.cls-34,.cls-37{font-size:29px;}.cls-34,.cls-36,.cls-37,.cls-39,.cls-41,.cls-43{font-family:AscenderSansW01-Bold;font-weight:700;}.cls-35{letter-spacing:-0.01em;}.cls-36,.cls-39{font-size:23px;}.cls-38{letter-spacing:-0.02em;}.cls-40{letter-spacing:-0.04em;}.cls-41{font-size:34px;}.cls-42{letter-spacing:-0.06em;}.cls-43{font-size:33px;}</style></defs><path class="cls-1" d="M40,321V88a8,8,0,0,1,8-8H88.14V321Z" transform="translate(-39 -39)"/><path class="cls-2" d="M40,321H88.14V630H40Z" transform="translate(-39 -39)"/><path class="cls-3" d="M40,630H88.14V960H40Z" transform="translate(-39 -39)"/><path class="cls-4" d="M88.14,1240H48a8,8,0,0,1-8-8V960H88.14Z" transform="translate(-39 -39)"/><path class="cls-5" d="M88.14,80H1710a8,8,0,0,1,8,8V321H88.14Zm0,241H1718V630H88.14Zm0,309H1718V960H88.14ZM1718,960v272a8,8,0,0,1-8,8H88.14V960Z" transform="translate(-39 -39)"/><path class="cls-6" d="M40,90.8V48a8,8,0,0,1,8-8H1710a8,8,0,0,1,8,8V90.8Z" transform="translate(-39 -39)"/><path class="cls-7" d="M1758,90.8V48a8,8,0,0,1,8-8h564a8,8,0,0,1,8,8V90.8Z" transform="translate(-39 -39)"/><path class="cls-5" d="M2338,90.8V1232a8,8,0,0,1-8,8H1766a8,8,0,0,1-8-8V90.8Z" transform="translate(-39 -39)"/><path class="cls-8" d="M2378,90.8V48a8,8,0,0,1,8-8h564a8,8,0,0,1,8,8V90.8Z" transform="translate(-39 -39)"/><path class="cls-5" d="M2958,90.8V1232a8,8,0,0,1-8,8H2386a8,8,0,0,1-8-8V90.8Z" transform="translate(-39 -39)"/><path class="cls-9" d="M766,192.7c21.07,0,38.15,21.18,38.15,47.3S787.07,287.3,766,287.3H651.52c-21.07,0-38.16-21.18-38.16-47.3s17.1-47.3,38.16-47.3Z" transform="translate(-39 -39)"/><path class="cls-10" d="M1378,144.9a8,8,0,0,1,8-8h144a8,8,0,0,1,8,8V250.47a8,8,0,0,1-8,8H1386a8,8,0,0,1-8-8Z" transform="translate(-39 -39)"/><path class="cls-11" d="M238,748a8,8,0,0,1,8-8H390a8,8,0,0,1,8,8V852a8,8,0,0,1-8,8H246a8,8,0,0,1-8-8Z" transform="translate(-39 -39)"/><path class="cls-11" d="M498,748a8,8,0,0,1,8-8H650a8,8,0,0,1,8,8V852a8,8,0,0,1-8,8H506a8,8,0,0,1-8-8Z" transform="translate(-39 -39)"/><path class="cls-11" d="M758,748a8,8,0,0,1,8-8H910a8,8,0,0,1,8,8V852a8,8,0,0,1-8,8H766a8,8,0,0,1-8-8Z" transform="translate(-39 -39)"/><path class="cls-11" d="M1018,748a8,8,0,0,1,8-8h144a8,8,0,0,1,8,8V852a8,8,0,0,1-8,8H1026a8,8,0,0,1-8-8Z" transform="translate(-39 -39)"/><path class="cls-11" d="M1278,748a8,8,0,0,1,8-8h144a8,8,0,0,1,8,8V852a8,8,0,0,1-8,8H1286a8,8,0,0,1-8-8Z" transform="translate(-39 -39)"/><path class="cls-11" d="M1538,748a8,8,0,0,1,8-8h144a8,8,0,0,1,8,8V852a8,8,0,0,1-8,8H1546a8,8,0,0,1-8-8Z" transform="translate(-39 -39)"/><path class="cls-12" d="M378,408a8,8,0,0,1,8-8H530a8,8,0,0,1,8,8V512a8,8,0,0,1-8,8H386a8,8,0,0,1-8-8Z" transform="translate(-39 -39)"/><path class="cls-12" d="M879.55,408a8,8,0,0,1,8-8h144a8,8,0,0,1,8,8V512a8,8,0,0,1-8,8h-144a8,8,0,0,1-8-8Z" transform="translate(-39 -39)"/><path class="cls-12" d="M1378,408a8,8,0,0,1,8-8h144a8,8,0,0,1,8,8V512a8,8,0,0,1-8,8H1386a8,8,0,0,1-8-8Z" transform="translate(-39 -39)"/><path class="cls-11" d="M101.48,668a8,8,0,0,1,8-8H370a8,8,0,0,1,8,8v24a8,8,0,0,1-8,8H109.48a8,8,0,0,1-8-8Z" transform="translate(-39 -39)"/><path class="cls-13" d="M1918,228a8,8,0,0,1,8-8h224a8,8,0,0,1,8,8V332a8,8,0,0,1-8,8H1926a8,8,0,0,1-8-8Z" transform="translate(-39 -39)"/><path class="cls-14" d="M1918,628a8,8,0,0,1,8-8h224a8,8,0,0,1,8,8V732a8,8,0,0,1-8,8H1926a8,8,0,0,1-8-8Z" transform="translate(-39 -39)"/><path class="cls-15" d="M1878,1026.67a8,8,0,0,1,8-8h144a8,8,0,0,1,8,8v104a8,8,0,0,1-8,8H1886a8,8,0,0,1-8-8Z" transform="translate(-39 -39)"/><path class="cls-16" d="M1278,1028a8,8,0,0,1,8-8h204a8,8,0,0,1,8,8v104a8,8,0,0,1-8,8H1286a8,8,0,0,1-8-8Z" transform="translate(-39 -39)"/><path class="cls-17" d="M2538,168a8,8,0,0,1,8-8h224a8,8,0,0,1,8,8V272a8,8,0,0,1-8,8H2546a8,8,0,0,1-8-8Z" transform="translate(-39 -39)"/><path class="cls-17" d="M2538,448a8,8,0,0,1,8-8h224a8,8,0,0,1,8,8V552a8,8,0,0,1-8,8H2546a8,8,0,0,1-8-8Z" transform="translate(-39 -39)"/><path class="cls-17" d="M2538,728a8,8,0,0,1,8-8h224a8,8,0,0,1,8,8V832a8,8,0,0,1-8,8H2546a8,8,0,0,1-8-8Z" transform="translate(-39 -39)"/><path class="cls-17" d="M2538,1008a8,8,0,0,1,8-8h224a8,8,0,0,1,8,8v104a8,8,0,0,1-8,8H2546a8,8,0,0,1-8-8Z" transform="translate(-39 -39)"/><path class="cls-18" d="M381.42,680h1507.5" transform="translate(-39 -39)"/><path class="cls-19" d="M381.5,683.5h-3.56l0-7h3.6Z" transform="translate(-39 -39)"/><path class="cls-20" d="M1906.7,680l-14.27,4.64v-9.28Z" transform="translate(-39 -39)"/><path class="cls-18" d="M1458,523.45v153" transform="translate(-39 -39)"/><path class="cls-19" d="M1461.47,523.54h-7v-3.6h7Z" transform="translate(-39 -39)"/><path class="cls-18" d="M1458,676.4V680m160,56.55v-26.5a0,0,0,0,1,0,0h0V683.5" transform="translate(-39 -39)"/><path class="cls-19" d="M1621.47,740.05h-7v-3.6h7Z" transform="translate(-39 -39)"/><path class="cls-18" d="M1618,683.6V680m-260,56.55V710h0V683.5" transform="translate(-39 -39)"/><path class="cls-19" d="M1361.47,740.05h-7v-3.6h7Z" transform="translate(-39 -39)"/><path class="cls-18" d="M1358,683.6V680m-260,56.55V710h0V683.5" transform="translate(-39 -39)"/><path class="cls-19" d="M1101.47,740.05h-7v-3.6h7Z" transform="translate(-39 -39)"/><path class="cls-18" d="M1098,683.6V680M838,736.55v-53" transform="translate(-39 -39)"/><path class="cls-19" d="M841.47,740.05h-7v-3.6h7Z" transform="translate(-39 -39)"/><path class="cls-18" d="M838,683.6V680M578,736.55v-53" transform="translate(-39 -39)"/><path class="cls-19" d="M581.47,740.05h-7v-3.6h7Z" transform="translate(-39 -39)"/><path class="cls-18" d="M578,683.6V680M959.55,523.45v153" transform="translate(-39 -39)"/><path class="cls-19" d="M963.05,523.54h-7v-3.6h7Z" transform="translate(-39 -39)"/><path class="cls-18" d="M959.55,676.4V680M458,523.45v153" transform="translate(-39 -39)"/><path class="cls-19" d="M461.47,523.54h-7v-3.6h7Z" transform="translate(-39 -39)"/><path class="cls-18" d="M458,676.4V680M401.42,800h45.22a12,12,0,0,0,12-12V683.5" transform="translate(-39 -39)"/><path class="cls-19" d="M401.5,803.5h-3.58v-7h3.6Z" transform="translate(-39 -39)"/><path class="cls-18" d="M458.64,683.6V680" transform="translate(-39 -39)"/><path class="cls-10" d="M879.55,145.7a8,8,0,0,1,8-8h144a8,8,0,0,1,8,8v104a8,8,0,0,1-8,8h-144a8,8,0,0,1-8-8Z" transform="translate(-39 -39)"/><path class="cls-10" d="M378,148.78a8,8,0,0,1,8-8H530a8,8,0,0,1,8,8v104a8,8,0,0,1-8,8H386a8,8,0,0,1-8-8Z" transform="translate(-39 -39)"/><path class="cls-21" d="M458,263.73V373.07" transform="translate(-39 -39)"/><path class="cls-22" d="M461,263.8h-6v-3.07h6Z" transform="translate(-39 -39)"/><path class="cls-23" d="M458,390.34l-4.64-14.27h9.27Z" transform="translate(-39 -39)"/><path class="cls-21" d="M959.55,260.64V373.07" transform="translate(-39 -39)"/><path class="cls-22" d="M962.55,260.72h-6v-3.08h6Z" transform="translate(-39 -39)"/><path class="cls-23" d="M959.55,390.34l-4.64-14.27h9.28Z" transform="translate(-39 -39)"/><path class="cls-21" d="M1458,261.42V373.07" transform="translate(-39 -39)"/><path class="cls-22" d="M1461,261.5h-6v-3.08h6Z" transform="translate(-39 -39)"/><path class="cls-23" d="M1458,390.34l-4.64-14.27h9.27Z" transform="translate(-39 -39)"/><path class="cls-21" d="M808.15,240h22.23a12,12,0,0,0,12-12V207.94a10.25,10.25,0,0,1,10.24-10.25" transform="translate(-39 -39)"/><path class="cls-22" d="M808.23,243H805l.15-3-.13-3h3.2Z" transform="translate(-39 -39)"/><path class="cls-23" d="M869.9,197.7l-14.28,4.62v-9.27Z" transform="translate(-39 -39)"/><path class="cls-21" d="M609.36,240H587.14a12,12,0,0,1-12-12V211a10.25,10.25,0,0,0-10.25-10.24" transform="translate(-39 -39)"/><path class="cls-22" d="M612.36,240l.14,3h-3.2v-6h3.22Z" transform="translate(-39 -39)"/><path class="cls-23" d="M547.63,200.78l14.26-4.64v9.27Z" transform="translate(-39 -39)"/><path class="cls-9" d="M1534,880c18.78,0,34,13.73,34,30.67s-15.22,30.66-34,30.66H1432c-18.78,0-34-13.73-34-30.66S1413.2,880,1432,880Z" transform="translate(-39 -39)"/><path class="cls-21" d="M1572,910.67h35.72a12,12,0,0,0,12-12V886.92" transform="translate(-39 -39)"/><path class="cls-22" d="M1572.1,913.67h-3.3l.23-3-.15-2.93v-.07h3.23Z" transform="translate(-39 -39)"/><path class="cls-23" d="M1619.75,869.66l4.63,14.26h-9.27Z" transform="translate(-39 -39)"/><path class="cls-21" d="M1394,910.67h-24a12,12,0,0,1-12-12V886.93" transform="translate(-39 -39)"/><path class="cls-22" d="M1397,910.66l.15,2.94v.07h-3.23v-6h3.3Z" transform="translate(-39 -39)"/><path class="cls-23" d="M1358,869.66l4.63,14.27h-9.27Z" transform="translate(-39 -39)"/><path class="cls-21" d="M1440.92,800h33.4c7.36,0,13.32,5.37,13.32,12v40" transform="translate(-39 -39)"/><path class="cls-22" d="M1441,803h-3.08v-6H1441Z" transform="translate(-39 -39)"/><path class="cls-21" d="M1535,800h-36.45c-6,0-10.93,5.37-10.93,12v40" transform="translate(-39 -39)"/><path class="cls-22" d="M1538,803h-3.08v-6H1538Z" transform="translate(-39 -39)"/><path class="cls-23" d="M1488,869.3,1483.36,855h9.28Z" transform="translate(-39 -39)"/><path class="cls-9" d="M750,1033.26c26.5,0,48,20.93,48,46.74s-21.5,46.74-48,46.74H606c-26.5,0-48-20.93-48-46.74s21.5-46.74,48-46.74Z" transform="translate(-39 -39)"/><path class="cls-9" d="M1092.18,1038.67c21.07,0,38.16,17.9,38.16,40s-17.1,40-38.16,40H977.7c-21.07,0-38.15-17.9-38.15-40s17.08-40,38.16-40Z" transform="translate(-39 -39)"/><path class="cls-24" d="M578,863v45a12,12,0,0,0,12,12h76a12,12,0,0,1,12,12v73.3" transform="translate(-39 -39)"/><path class="cls-25" d="M581,863h-6V860h6Z" transform="translate(-39 -39)"/><path class="cls-26" d="M678,1022.55l-4.64-14.26h9.27Z" transform="translate(-39 -39)"/><path class="cls-24" d="M755,800H690a12,12,0,0,0-12,12v193.3" transform="translate(-39 -39)"/><path class="cls-25" d="M758,803h-3.08v-6H758Z" transform="translate(-39 -39)"/><path class="cls-26" d="M678,1022.55l-4.64-14.26h9.27Z" transform="translate(-39 -39)"/><path class="cls-24" d="M1015,800h-6a12,12,0,0,0-12,12v96a12,12,0,0,1-12,12H690a12,12,0,0,0-12,12v73.3" transform="translate(-39 -39)"/><path class="cls-25" d="M1018,803h-3.08v-6H1018Z" transform="translate(-39 -39)"/><path class="cls-26" d="M678,1022.55l-4.64-14.26h9.27Z" transform="translate(-39 -39)"/><path class="cls-27" d="M1134.34,1078.67H1251" transform="translate(-39 -39)"/><path class="cls-28" d="M1134.4,1081.67h-3.25l.2-3-.12-3h3.18Z" transform="translate(-39 -39)"/><path class="cls-29" d="M1268.3,1078.67,1254,1083.3V1074Z" transform="translate(-39 -39)"/><path class="cls-30" d="M838,863v73.86a12,12,0,0,0,12,12h173a12,12,0,0,1,12,12v49.9" transform="translate(-39 -39)"/><path class="cls-31" d="M841,863h-6V860h6Z" transform="translate(-39 -39)"/><path class="cls-32" d="M1034.94,1028l-4.63-14.27h9.28Z" transform="translate(-39 -39)"/><path class="cls-30" d="M1098,863v73.86a12,12,0,0,1-12,12h-39a12,12,0,0,0-12,12v49.9" transform="translate(-39 -39)"/><path class="cls-31" d="M1101,863h-6V860h6Z" transform="translate(-39 -39)"/><path class="cls-32" d="M1034.94,1028l-4.63-14.27h9.28Z" transform="translate(-39 -39)"/><path class="cls-33" d="M2038,1026.67a8,8,0,0,1,8-8h144a8,8,0,0,1,8,8v104a8,8,0,0,1-8,8H2046a8,8,0,0,1-8-8Z" transform="translate(-39 -39)"/><path class="cls-21" d="M2160.92,280h175a12,12,0,0,0,12-12V232a12,12,0,0,1,12-12H2511" transform="translate(-39 -39)"/><path class="cls-22" d="M2161,283h-3.08v-6H2161Z" transform="translate(-39 -39)"/><path class="cls-23" d="M2528.3,220,2514,224.64v-9.28Z" transform="translate(-39 -39)"/><path class="cls-21" d="M2160.92,280h175a12,12,0,0,1,12,12V488a12,12,0,0,0,12,12H2511" transform="translate(-39 -39)"/><path class="cls-22" d="M2161,283h-3.08v-6H2161Z" transform="translate(-39 -39)"/><path class="cls-23" d="M2528.3,500,2514,504.64v-9.28Z" transform="translate(-39 -39)"/><path class="cls-21" d="M2160.92,280h175a12,12,0,0,1,12,12V768a12,12,0,0,0,12,12H2511" transform="translate(-39 -39)"/><path class="cls-22" d="M2161,283h-3.08v-6H2161Z" transform="translate(-39 -39)"/><path class="cls-23" d="M2528.3,780,2514,784.64v-9.28Z" transform="translate(-39 -39)"/><path class="cls-21" d="M2160.92,280h175a12,12,0,0,1,12,12v756a12,12,0,0,0,12,12H2511" transform="translate(-39 -39)"/><path class="cls-22" d="M2161,283h-3.08v-6H2161Z" transform="translate(-39 -39)"/><path class="cls-23" d="M2528.3,1060l-14.26,4.64v-9.28Z" transform="translate(-39 -39)"/><path class="cls-21" d="M2160.92,680h184" transform="translate(-39 -39)"/><path class="cls-22" d="M2161,683h-3.08v-6H2161Z" transform="translate(-39 -39)"/><path class="cls-21" d="M2344.9,680H2348m-847,400h350.13" transform="translate(-39 -39)"/><path class="cls-22" d="M1501,1083h-3.08v-6H1501Z" transform="translate(-39 -39)"/><path class="cls-23" d="M1868.3,1080l-14.25,4.64v-9.28Z" transform="translate(-39 -39)"/><path class="cls-24" d="M678,1130.74V1188a12,12,0,0,0,12,12H1946a12,12,0,0,0,12-12v-22.4" transform="translate(-39 -39)"/><path class="cls-25" d="M681,1130.82h-6v-3.08h6Z" transform="translate(-39 -39)"/><path class="cls-26" d="M1958,1148.33l4.63,14.26h-9.27Z" transform="translate(-39 -39)"/><path class="cls-24" d="M678,1130.74V1188a12,12,0,0,0,12,12H2106a12,12,0,0,0,12-12v-22.4" transform="translate(-39 -39)"/><path class="cls-25" d="M681,1130.82h-6v-3.08h6Z" transform="translate(-39 -39)"/><path class="cls-26" d="M2118,1148.33l4.63,14.26h-9.27Z" transform="translate(-39 -39)"/><path class="cls-21" d="M2200.92,1078.67h135a12,12,0,0,0,12-12V792a12,12,0,0,1,12-12H2511" transform="translate(-39 -39)"/><path class="cls-22" d="M2201,1081.67h-3.08v-6H2201Z" transform="translate(-39 -39)"/><path class="cls-23" d="M2528.3,780,2514,784.64v-9.28Z" transform="translate(-39 -39)"/><path class="cls-9" d="M2089,120c18.77,0,34,13.73,34,30.67s-15.23,30.66-34,30.66H1987c-18.78,0-34-13.73-34-30.66S1968.17,120,1987,120Z" transform="translate(-39 -39)"/><path class="cls-21" d="M2127,150.67h58.9a12,12,0,0,1,12,12V232a12,12,0,0,1-12,12h-1" transform="translate(-39 -39)"/><path class="cls-22" d="M2127.08,153.67h-3.3l.22-3-.15-2.93v-.07h3.23Z" transform="translate(-39 -39)"/><path class="cls-23" d="M2167.6,244l14.26-4.63v9.28Z" transform="translate(-39 -39)"/><path class="cls-21" d="M1915,240h-25a12,12,0,0,1-12-12V162.67a12,12,0,0,1,12-12h35" transform="translate(-39 -39)"/><path class="cls-22" d="M1918,243h-3.08v-6H1918Z" transform="translate(-39 -39)"/><path class="cls-23" d="M1942.23,150.67,1928,155.3V146Z" transform="translate(-39 -39)"/><path class="cls-9" d="M1891,938c14.92,0,27,13.73,27,30.66s-12.1,30.67-27,30.67h-81c-14.93,0-27-13.73-27-30.67S1795,938,1809.9,938Z" transform="translate(-39 -39)"/><path class="cls-9" d="M1950.6,420c21.07,0,38.16,17.9,38.16,40s-17.1,40-38.16,40H1836.13c-21.08,0-38.16-17.9-38.16-40s17.08-40,38.16-40Z" transform="translate(-39 -39)"/><path class="cls-9" d="M2240.6,420c21.07,0,38.16,17.9,38.16,40s-17.1,40-38.16,40H2126.13c-21.08,0-38.16-17.9-38.16-40s17.08-40,38.16-40Z" transform="translate(-39 -39)"/><path class="cls-21" d="M2183.36,504v44.52a12,12,0,0,1-12,12H2050a12,12,0,0,0-12,12v20.55" transform="translate(-39 -39)"/><path class="cls-22" d="M2186.36,504.08h-6V501h6Z" transform="translate(-39 -39)"/><path class="cls-23" d="M2038,610.34l-4.64-14.27h9.27Z" transform="translate(-39 -39)"/><path class="cls-21" d="M1963,617.08V572.54a12,12,0,0,0-12-12h-45.6a12,12,0,0,1-12-12V528" transform="translate(-39 -39)"/><path class="cls-22" d="M1966,620.08h-6V617h6Z" transform="translate(-39 -39)"/><path class="cls-23" d="M1893.36,510.7,1898,525h-9.27Z" transform="translate(-39 -39)"/><path class="cls-21" d="M1893.36,416V391.5a12,12,0,0,1,12-12h55a12,12,0,0,0,12-12V367" transform="translate(-39 -39)"/><path class="cls-22" d="M1896.36,419h-6v-3.08h6Z" transform="translate(-39 -39)"/><path class="cls-23" d="M1972.38,349.7,1977,364h-9.27Z" transform="translate(-39 -39)"/><path class="cls-21" d="M2038,343v24.53a12,12,0,0,0,12,12h121.4a12,12,0,0,1,12,12V392" transform="translate(-39 -39)"/><path class="cls-22" d="M2041,343h-6V340h6Z" transform="translate(-39 -39)"/><path class="cls-23" d="M2183.36,409.3,2178.73,395H2188Z" transform="translate(-39 -39)"/><path class="cls-9" d="M1950.6,800c21.07,0,38.16,21.17,38.16,47.3s-17.1,47.3-38.16,47.3H1836.13c-21.08,0-38.16-21.18-38.16-47.3s17.08-47.3,38.16-47.3Z" transform="translate(-39 -39)"/><path class="cls-9" d="M2250.2,800c21.08,0,38.16,21.17,38.16,47.3s-17.08,47.3-38.15,47.3H2135.74c-21.07,0-38.15-21.18-38.15-47.3s17.08-47.3,38.15-47.3Z" transform="translate(-39 -39)"/><path class="cls-21" d="M2292.37,847.3H2306a12,12,0,0,0,12-12V727.88a12,12,0,0,0-12-12h-121" transform="translate(-39 -39)"/><path class="cls-22" d="M2292.44,850.3h-3.23l.17-3-.14-3h3.2Z" transform="translate(-39 -39)"/><path class="cls-23" d="M2167.66,715.88l14.27-4.63v9.27Z" transform="translate(-39 -39)"/><path class="cls-21" d="M2038,743V835.3a12,12,0,0,0,12,12h19.63" transform="translate(-39 -39)"/><path class="cls-22" d="M2041,743h-6V740h6Z" transform="translate(-39 -39)"/><path class="cls-23" d="M2086.87,847.3l-14.27,4.63v-9.27Z" transform="translate(-39 -39)"/><path class="cls-21" d="M1982,743v5a12,12,0,0,1-12,12h-64.6a12,12,0,0,0-12,12v0" transform="translate(-39 -39)"/><path class="cls-22" d="M1985,743.05h-6V740h6Z" transform="translate(-39 -39)"/><path class="cls-23" d="M1893.36,789.3,1888.73,775H1898Z" transform="translate(-39 -39)"/><path class="cls-21" d="M1794,847.3h-14a12,12,0,0,0-12,12V888a12,12,0,0,0,12,12h22.94a10.05,10.05,0,0,1,10.07,10h0" transform="translate(-39 -39)"/><path class="cls-22" d="M1797,847.3l.13,3h-3.2v-6h3.23Z" transform="translate(-39 -39)"/><path class="cls-23" d="M1813,927.33l-4.64-14.27h9.27Z" transform="translate(-39 -39)"/><path class="cls-21" d="M1877,934V922.56" transform="translate(-39 -39)"/><path class="cls-22" d="M1880,937h-6V934h6Z" transform="translate(-39 -39)"/><path class="cls-23" d="M1877,905.3l4.63,14.27h-9.27Z" transform="translate(-39 -39)"/><path class="cls-21" d="M1992.76,847.3h25a12,12,0,0,1,12,12V958a12,12,0,0,1-12,12H1970a12,12,0,0,0-12,12v9.74" transform="translate(-39 -39)"/><path class="cls-22" d="M1992.84,850.3h-3.24l.16-3-.14-3h3.22Z" transform="translate(-39 -39)"/><path class="cls-23" d="M1958,1009l-4.64-14.26h9.27Z" transform="translate(-39 -39)"/><path class="cls-21" d="M1992.76,847.3H2016a12,12,0,0,1,12,12V958a12,12,0,0,0,12,12h66a12,12,0,0,1,12,12v9.74" transform="translate(-39 -39)"/><path class="cls-22" d="M1992.84,850.3h-3.24l.16-3-.14-3h3.22Z" transform="translate(-39 -39)"/><path class="cls-23" d="M2118,1009l-4.64-14.26h9.27Z" transform="translate(-39 -39)"/><text class="cls-34" transform="translate(89.95 653.02)">Imports Nuclear</text><text class="cls-34" transform="translate(247.78 767.39)">Coal</text><text class="cls-34" transform="translate(520.05 767.39)">Oil</text><text class="cls-34" transform="translate(771.37 767.39)">Gas</text><text class="cls-34" transform="translate(998.53 767.39)">Biomass</text><text class="cls-34" transform="translate(1275.58 767.39)">HDAM</text><text class="cls-34" transform="translate(1539.04 767.39)">HPHS</text><text class="cls-34" transform="translate(383.4 427.39)">Solar</text><text class="cls-34" transform="translate(885.18 427.39)"><tspan class="cls-35">W</tspan><tspan x="27.12" y="0">ind</tspan></text><text class="cls-34" transform="translate(1376.47 427.39)">HROR</text><text class="cls-34" transform="translate(1261.19 1047.39)">Heat storage</text><text class="cls-36" transform="translate(585.92 1019.55)">Fuel base<tspan x="-43.44" y="27.6">traditional boilers</tspan><tspan x="-26.82" y="55.2">(thermal units)</tspan></text><text class="cls-37" transform="translate(966.89 1048.57)">CH<tspan class="cls-38" x="41.89" y="0">P</tspan></text><text class="cls-36" transform="translate(1405.82 877.76)">Storage</text><text class="cls-36" transform="translate(621.79 181.71)">Capacity<tspan x="-12.77" y="27.6">Investment</tspan><tspan x="0.66" y="55.2">(CAPEX)</tspan></text><text class="cls-39" transform="translate(358.68 141.18)"><tspan class="cls-40">A</tspan><tspan x="15.76" y="0">vailability</tspan><tspan x="15.55" y="27.6">for each</tspan><tspan x="0.86" y="55.2">Solar Zone</tspan></text><text class="cls-39" transform="translate(860.26 138.23)"><tspan class="cls-40">A</tspan><tspan x="15.76" y="0">vailability</tspan><tspan x="15.55" y="27.6">for each</tspan><tspan class="cls-35" x="1.63" y="55.2">W</tspan><tspan x="23.13" y="55.2">ind Zone</tspan></text><text class="cls-39" transform="translate(1357.3 126.66)"><tspan class="cls-40">A</tspan><tspan x="15.76" y="0">vailability</tspan><tspan x="15.55" y="27.6">for each</tspan><tspan x="-5.53" y="55.2">Hydro-River</tspan><tspan x="32.82" y="82.8">Zone</tspan></text><text class="cls-41" transform="translate(566.15 37.31)">Generation and Flexibility options</text><text class="cls-41" transform="translate(1732.88 37.31)">Secondary transformation sectors</text><text class="cls-41" transform="translate(2454.76 37.31)">Final demand sectors</text><text class="cls-34" transform="translate(2562.84 748.11)">Industry</text><text class="cls-34" transform="translate(2523.87 452.59)">Buildings and<tspan x="15.26" y="34.8">commercial</tspan></text><text class="cls-34" transform="translate(2552.33 187.77)"><tspan class="cls-42">T</tspan><tspan x="16.11" y="0">ransport</tspan></text><text class="cls-34" transform="translate(2574.04 1030.5)">Others</text><text class="cls-43" transform="translate(35.86 902.31) rotate(-90)">Dispatchable units</text><text class="cls-43" transform="translate(35.86 1186.4) rotate(-90)">Heat generation</text><text class="cls-43" transform="translate(35.86 902.31) rotate(-90)">Dispatchable units</text><text class="cls-43" transform="translate(35.86 575.79) rotate(-90)">Non dispatchable</text><text class="cls-43" transform="translate(35.86 253.43) rotate(-90)"><tspan class="cls-40">A</tspan><tspan x="22.61" y="0">vailability</tspan></text><text class="cls-34" transform="translate(1980.64 247.36)">H2</text><text class="cls-37" transform="translate(1929.78 647.66)">Electricity</text><text class="cls-34" transform="translate(1869.01 1029.25)">District<tspan x="-3.21" y="34.8">Heating</tspan></text><text class="cls-34" transform="translate(2040.29 1029.14)">Other<tspan x="7.24" y="34.8">Heat</tspan></text><text class="cls-36" transform="translate(1769.66 935.69)">Storage</text><text class="cls-36" transform="translate(1788.71 800.6)">Heat pumps<tspan x="3.19" y="27.6">and Boilers</tspan></text><text class="cls-36" transform="translate(2114.63 789.93)">EV and<tspan x="-17.26" y="27.6">Stationary</tspan><tspan x="-2.56" y="55.2">storage</tspan></text><text class="cls-36" transform="translate(1940.35 117.43)">H2 Storage</text><text class="cls-36" transform="translate(2093.12 413.87)">Fuel cells<tspan x="-30.02" y="27.6">(CAPEX/OPEX)</tspan></text><text class="cls-36" transform="translate(1786.19 414.12)">Electrolizers<tspan x="-14.04" y="27.6">(CAPEX/OPEX)</tspan></text></svg>